<?xml version="1.0" encoding="UTF-8"?>
<svg width="200px" height="200px" viewBox="0 0 200 200" version="1.1" xmlns="http://www.w3.org/2000/svg" xmlns:xlink="http://www.w3.org/1999/xlink">
    <title>majeedr</title>
    <g id="Page-1" stroke="none" stroke-width="1" fill="none" fill-rule="evenodd">
        <path d="M100,200 C155.22848,200 200,155.22848 200,100 C200,44.771526 155.22848,0 100,0 C44.771526,0 0,44.771526 0,100 C0,155.22848 44.771526,200 100,200 L100,200 L100,200 Z M117.96915,162.47163 C114.29705,162.26937 110.67213,161.47911 107.74609,160.2429 C103.8476,158.59584 100.62559,155.88799 98.400746,152.38884 C96.070866,148.7245 94.682216,144.21133 94.112992,138.45344 C93.835136,135.64284 93.852016,131.05628 94.150882,128.15776 C94.270088,127.00164 94.507278,125.25038 94.677966,124.26606 C95.01298,122.33413 95.753694,119.23178 96.174974,117.99612 C96.318766,117.57437 96.436412,117.17777 96.436412,117.11479 C96.436412,117.05179 96.286852,116.83704 96.10406,116.63754 C95.195492,115.64595 94.16033,113.75709 93.530764,111.94206 C92.716268,109.59386 92.363666,107.8077 91.159598,99.930426 C90.896328,98.208044 90.671998,96.76685 90.661094,96.727772 C90.650174,96.688692 90.492336,97.325736 90.310306,98.143428 C89.445442,102.02848 87.951602,105.07711 85.423564,108.11628 C79.976662,114.66448 72.364768,120.68302 64.75998,124.45449 C59.48741,127.06932 54.865782,128.33182 50.497126,128.35072 C48.741922,128.35872 48.078296,128.26832 47.005836,127.87714 C44.083274,126.81123 41.978954,123.88695 41.218976,119.83541 C40.818398,117.69987 40.845284,113.75349 41.282686,110.4835 C41.729182,107.14557 42.346812,104.4309 43.420164,101.08869 C44.52696,97.642348 45.694786,94.95418 46.085198,94.95418 C46.130988,94.95418 46.210814,95.04716 46.262586,95.16079 C46.398728,95.459622 46.263186,96.133152 45.482832,99.029554 C44.445434,102.88106 43.792998,105.93327 43.401252,108.76755 C43.137482,110.67594 43.139744,113.52664 43.405952,114.66552 C44.192754,118.03184 46.431532,119.59534 50.448972,119.58417 C56.743158,119.56667 63.424746,117.24454 70.68045,112.55287 C75.723122,109.29218 80.042014,105.75835 83.242122,102.2746 C84.660992,100.72996 85.200536,100.07503 86.783148,97.976238 C88.51431,95.680454 88.504016,95.70975 88.493266,93.109538 C88.484266,90.922506 88.315378,89.586616 87.59722,86.020212 C85.984266,78.010222 83.796524,71.785734 78.463994,60.034656 L77.626914,58.190014 L77.673644,57.374938 C77.753564,55.9807 78.600116,50.92263 78.907378,50.003446 C79.055424,49.560558 79.32582,49.22419 79.533792,49.22419 C80.064956,49.22419 82.76266,53.320718 84.647094,56.98885 C87.900828,63.322392 90.215526,70.55007 92.230746,80.66892 C92.503282,82.037388 92.746942,83.09913 92.772212,83.028348 C92.797492,82.957568 93.149212,81.915128 93.553842,80.711818 C93.95847,79.508512 94.556266,77.809724 94.882284,76.936734 C95.330036,75.737764 95.445732,75.342698 95.355226,75.321744 C95.182616,75.281774 95.197144,75.244724 95.59362,74.713802 C97.675444,71.926006 105.50882,65.883222 112.1785,61.919978 C116.19653,59.53239 120.24483,57.57579 123.88853,56.260348 C124.57269,56.013356 125.16035,55.78579 125.19444,55.754646 C125.22854,55.723496 124.75863,54.714364 124.15021,53.512122 C122.45653,50.165362 122.3905,49.941798 122.3897,47.551142 C122.3889,46.085434 122.4167,45.716332 122.57799,45.020118 C122.98017,43.284552 123.78383,41.77735 124.91564,40.636054 C126.26008,39.28033 127.63322,38.704734 129.74998,38.60959 C131.36146,38.53716 132.32425,38.750748 134.26885,39.612074 C136.2902,40.507394 139.40407,42.491336 142.07554,44.585952 C143.18999,45.459762 144.69968,46.989618 145.20543,47.757636 C145.69165,48.496 146.02177,49.339346 146.02177,49.843056 C146.02177,50.353324 145.08804,53.627868 144.40006,55.530296 L143.81055,57.160446 L140.56243,58.161164 C138.77597,58.711558 135.98246,59.583124 134.35464,60.097978 L131.39496,61.034074 L131.34476,62.529156 C131.31716,63.351448 131.24946,64.18328 131.19434,64.377672 C130.95688,65.214718 130.46332,65.420306 129.98882,64.879822 C129.63284,64.474332 129.42884,64.057108 129.08407,63.02937 C128.92507,62.555388 128.77472,62.147332 128.74997,62.122576 C128.66117,62.033816 125.84962,63.158176 123.0735,64.392608 C113.97742,68.43726 108.67327,71.426516 105.19202,74.470062 L104.23519,75.306584 L109.8833,75.306584 C116.12593,75.306584 121.4497,75.398274 129.85073,75.650464 C140.78589,75.978728 144.48906,76.03192 147.99734,75.911114 C153.64691,75.71657 153.66865,75.716318 154.08438,75.841234 C154.33846,75.917574 154.51233,76.033972 154.59662,76.184154 C154.71789,76.400256 154.66742,76.58045 153.57688,79.827174 C152.94585,81.705794 152.37315,83.358672 152.3042,83.500236 C152.12736,83.863368 151.779,84.21827 151.41615,84.404972 C151.2454,84.492832 148.07984,85.361312 144.38156,86.334936 C135.60002,88.646794 132.65428,89.558142 128.22076,91.334726 C120.00667,94.62626 113.96422,98.74419 108.36892,104.86378 C106.59331,106.80576 103.45195,110.75045 103.57949,110.87801 C103.68488,110.98341 106.06457,111.01134 107.04039,110.91861 C110.53621,110.58646 113.26565,109.69009 115.98429,107.98137 C117.50256,107.0271 118.92865,105.7837 122.77302,102.0623 C124.0235,100.85182 125.27824,99.622914 125.56134,99.331392 C126.20185,98.671814 126.7694,98.36626 127.35403,98.36626 C127.71325,98.36626 127.81595,98.40381 127.98076,98.595436 C128.23125,98.886686 128.237,99.322828 128.00606,100.51258 C127.34387,103.9236 128.82359,107.32458 131.39024,108.29077 C132.17547,108.58637 133.11242,108.65639 137.74323,108.7656 C144.07123,108.91484 147.87446,109.31339 150.01088,110.05118 C151.03261,110.40402 152.54939,111.19265 153.61397,111.92455 C156.74743,114.07882 158.68972,117.09715 159.4499,120.99366 C160.12062,124.43158 159.83704,129.26161 158.7195,133.43427 C156.99854,139.85997 153.28181,145.79873 147.66474,151.09808 C141.59249,156.82686 135.13458,160.35785 128.04921,161.82324 C124.91958,162.4705 121.70419,162.67732 117.96915,162.47161 L117.96914,162.47161 L117.96914,162.47161 L117.96914,162.47161 L117.96914,162.47161 L117.96915,162.47163 Z M124.74638,153.37409 C130.99239,152.85641 137.89509,150.18374 144.29857,145.80364 C146.75989,144.12005 148.95381,142.28314 151.04131,140.15813 C153.95275,137.19437 155.67014,134.8111 156.5638,132.49447 C157.08749,131.13688 157.21463,130.45066 157.20289,129.04526 C157.16619,124.65739 154.81765,121.4042 150.35403,119.55838 C148.79939,118.91549 147.91847,118.68839 145.80728,118.3862 C143.27696,118.02402 140.87813,117.86726 136.37062,117.7695 C132.34777,117.6823 131.65495,117.62906 130.52291,117.32049 C127.27793,116.436 125.47205,113.81519 125.04737,109.37405 C124.91263,107.96494 124.86008,107.86539 124.28972,107.93862 C123.82462,107.99832 123.40733,108.31941 122.67901,109.17793 C121.49878,110.56914 119.3097,113.00938 118.40101,113.94675 C115.75793,116.67327 112.26197,118.76424 109.00432,119.56701 C107.48405,119.94164 106.46893,120.03644 104.59005,119.97925 C102.55472,119.91725 101.21396,119.6974 99.856334,119.20292 L99.029756,118.90186 L98.597576,120.11936 C98.02211,121.74052 97.587552,123.41732 97.31866,125.05426 C97.119292,126.26796 97.097794,126.62869 97.097794,128.75834 C97.097794,133.70927 97.86157,137.69224 99.512746,141.35225 C102.57555,148.1413 108.62519,152.19191 117.22843,153.21402 C119.84091,153.52439 122.30095,153.57677 124.74638,153.37409 L124.74638,153.37409 L124.74638,153.37409 L124.74638,153.37409 L124.74638,153.37409 L124.74638,153.37409 Z M111.58208,132.6181 C110.6049,131.90966 108.98187,130.78799 107.97537,130.12549 C106.96885,129.463 106.12495,128.8678 106.10002,128.80282 C106.03412,128.6311 109.01334,122.48434 109.3242,122.15064 C109.54925,121.90906 109.7691,121.93715 110.4127,122.28974 C111.71824,123.00498 115.15511,125.37363 116.44592,126.44776 L116.76714,126.71506 L117.83998,124.50727 C118.43003,123.29298 118.91281,122.27207 118.91281,122.23858 C118.91281,122.20508 119.02887,122.01746 119.17072,121.82162 C119.51828,121.34176 119.72116,121.35497 120.67587,121.91952 C122.47267,122.9821 125.94743,125.43679 126.66427,126.14993 C126.96941,126.4535 126.99126,126.50691 126.94587,126.83808 C126.86277,127.44418 126.55461,128.22833 125.85398,129.61628 C125.1445,131.02173 124.06981,132.87451 123.77625,133.19832 C123.67995,133.3045 123.53721,133.39137 123.45895,133.39137 C123.38075,133.39137 122.67212,132.9273 121.8843,132.36012 C119.52289,130.66003 116.50145,128.64691 116.43088,128.72661 C116.39458,128.76761 116.11922,129.32242 115.81906,129.95947 C114.73011,132.27055 113.74616,133.90615 113.4448,133.90615 C113.3975,133.90615 112.55927,133.32651 111.58208,132.61807 L111.58208,132.61807 L111.58208,132.61807 L111.58208,132.61807 L111.58208,132.61807 L111.58208,132.6181 Z M100.74604,107.4003 C105.87974,98.316672 113.76689,90.807336 123.43748,85.795808 L125.21821,84.872992 L124.6177,84.819302 C124.28742,84.789772 122.62742,84.760782 120.92882,84.754882 C118.06995,84.744982 112.65564,84.609722 106.73095,84.400284 C105.38622,84.352744 102.31717,84.292642 99.910818,84.266718 C95.182298,84.215768 93.71711,84.142744 93.215142,83.932982 C93.037836,83.858892 92.882132,83.808912 92.869132,83.821914 C92.856132,83.834914 92.901282,84.134642 92.969462,84.487972 C93.290676,86.152492 94.786482,94.46962 95.407264,98.042886 C96.215478,102.695 96.414116,103.64125 96.875126,105.03537 C97.445512,106.76023 98.174566,108.07116 99.132162,109.09379 L99.558162,109.54872 L99.680884,109.30828 C99.748384,109.17604 100.2277,108.31745 100.74604,107.4003 L100.74604,107.4003 L100.74604,107.4003 L100.74604,107.4003 L100.74604,107.4003 Z M133.41095,52.632966 C135.20064,51.980404 136.41352,51.439494 136.41352,51.293894 C136.41352,51.016554 135.98199,50.522632 135.40803,50.143036 C134.18009,49.330908 131.51977,48.157766 129.63865,47.598864 C127.39436,46.932062 125.51847,46.906484 125.51847,47.542684 C125.51847,47.861636 126.27623,49.588768 127.50629,52.073416 L128.59827,54.279168 L130.59711,53.604644 C131.69648,53.233656 132.9627,52.796402 133.41095,52.632962 L133.41095,52.632962 L133.41095,52.632962 L133.41095,52.632962 L133.41095,52.632962 L133.41095,52.632966 Z M137.12459,102.22551 C136.13662,101.50588 134.51175,100.37657 133.51375,99.715932 C131.92165,98.662004 131.69898,98.48712 131.697209,98.289196 C131.69521,98.085442 134.24646,92.710468 134.71709,91.926486 C134.98151,91.486 135.21244,91.444782 135.80312,91.732636 C136.79441,92.215718 140.8838,95.028946 142.01117,96.00336 C142.45243,96.384748 142.50445,96.464546 142.50445,96.759984 C142.50445,97.57557 141.57826,99.643916 140.11668,102.09228 C139.50073,103.12409 139.17698,103.53391 138.97783,103.53391 C138.94653,103.53391 138.11257,102.94513 137.12459,102.22551 L137.12459,102.22551 L137.12459,102.22551 L137.12459,102.22551 L137.12459,102.22551 L137.12459,102.22551 Z" id="majeedr" fill="#6424B8" fill-rule="nonzero"></path>
    </g>
</svg>