<?xml version="1.0" encoding="UTF-8"?>
<svg width="200px" height="200px" viewBox="0 0 200 200" version="1.1" xmlns="http://www.w3.org/2000/svg" xmlns:xlink="http://www.w3.org/1999/xlink">
    <title>majeeder-ico</title>
    <g id="Page-1" stroke="none" stroke-width="1" fill="none" fill-rule="evenodd">
        <path d="M100,0 C44.771526,0 0,44.77153 0,100 C0,155.22846 44.771526,200 100,200 C155.22848,200 200,155.22846 200,100 C200,44.77153 155.22848,0 100,0 Z M57.748047,47.578125 C62.085357,47.578125 64.629305,50.121201 67.171875,52.962891 L100.07422,97.382812 L134.17578,51.318359 C139.11135,45.186289 151.22461,47.578125 151.22461,57.898438 L151.22461,142.10156 C151.22461,148.68234 147.03795,152.42188 142.25195,152.42188 C136.8677,152.42188 132.67969,148.68234 132.67969,142.10156 L132.67969,86.763672 L107.85156,118.17188 C102.46731,124.75262 95.738304,124.75262 90.802734,118.17188 L68.517578,86.763672 L68.517578,142.10156 C68.517578,148.68234 63.132297,152.42188 57.748047,152.42188 C52.962047,152.42188 48.775391,148.68234 48.775391,142.10156 L48.775391,57.898438 C48.775391,50.121188 55.355047,47.578125 57.748047,47.578125 Z" id="majeeder-ico" fill="#6424B8"></path>
    </g>
</svg>